<svg width="400" height="150" viewBox="0 0 400 150" xmlns="http://www.w3.org/2000/svg">
  <!-- Arka plan kartı (Mockup alanı) -->
  <rect width="400" height="150" rx="12" fill="#141414" stroke="#222222" stroke-width="1" />
  
  <!-- Pencere Kontrolleri -->
  <circle cx="20" cy="20" r="4" fill="#ff5f56" />
  <circle cx="30" cy="20" r="4" fill="#ffbd2e" />
  <circle cx="40" cy="20" r="4" fill="#27c93f" />
  
  <!-- Widget Konteyneri (Glassmorphism efekti simülasyonu) -->
  <rect x="37" y="35" width="326" height="80" rx="16" fill="rgba(255, 255, 255, 0.05)" stroke="rgba(255, 255, 255, 0.08)" stroke-width="1" />
  <rect x="38" y="36" width="324" height="78" rx="15" fill="none" stroke="rgba(29, 185, 84, 0.15)" stroke-width="1" />
  
  <!-- Albüm Görseli (Placeholder) -->
  <rect x="53" y="47" width="56" height="56" rx="8" fill="url(#albumGrad)" />
  <circle cx="81" cy="75" r="8" fill="#141414" opacity="0.8" />
  <circle cx="81" cy="75" r="3" fill="#1DB954" />
  
  <!-- Şarkı Bilgileri -->
  <text x="120" y="68" font-family="'Inter', sans-serif" font-size="13" font-weight="600" fill="#FFFFFF">Angie</text>
  <text x="120" y="85" font-family="'Inter', sans-serif" font-size="11" font-weight="500" fill="rgba(255, 255, 255, 0.5)">The Rolling Stones</text>
  
  <!-- Medya Kontrolleri -->
  <!-- Önceki Şarkı -->
  <path d="M255 70 L255 80 L248 75 Z" fill="rgba(255,255,255,0.6)" />
  <rect x="246" y="70" width="2" height="10" fill="rgba(255,255,255,0.6)" rx="0.5" />
  
  <!-- Oynat/Durdur (Durdurulmuş - Pause İkonu Yuvarlak Butonda) -->
  <circle cx="280" cy="75" r="14" fill="#1DB954" />
  <rect x="275" y="70" width="3" height="10" fill="#FFFFFF" rx="1" />
  <rect x="282" y="70" width="3" height="10" fill="#FFFFFF" rx="1" />
  
  <!-- Sonraki Şarkı -->
  <path d="M305 70 L305 80 L312 75 Z" fill="rgba(255,255,255,0.6)" />
  <rect x="312" y="70" width="2" height="10" fill="rgba(255,255,255,0.6)" rx="0.5" />
  
  <!-- İlerleme Çubuğu (Alttaki ince yeşil çizgi) -->
  <rect x="53" y="108" width="294" height="2" rx="1" fill="rgba(255, 255, 255, 0.1)" />
  <rect x="53" y="108" width="120" height="2" rx="1" fill="#1DB954" />
  
  <!-- Zaman Göstergesi -->
  <text x="312" y="102" font-family="'Inter', sans-serif" font-size="8" fill="rgba(255, 255, 255, 0.4)">1:42 / 4:33</text>
  
  <!-- Ekstra Butonlar (Şeffaflık, Tema, Sözler) -->
  <circle cx="342" cy="52" r="3" fill="rgba(255,255,255,0.3)" />
  <circle cx="342" cy="62" r="3" fill="rgba(255,255,255,0.3)" />
  <circle cx="342" cy="72" r="3" fill="rgba(255,255,255,0.3)" />

  <defs>
    <linearGradient id="albumGrad" x1="0%" y1="0%" x2="100%" y2="100%">
      <stop offset="0%" stop-color="#2b2b2b" />
      <stop offset="100%" stop-color="#141414" />
    </linearGradient>
  </defs>
</svg>
